<?xml version="1.0" encoding="UTF-8" standalone="no"?>
<svg xmlns:dc="http://purl.org/dc/elements/1.1/" xmlns:cc="http://creativecommons.org/ns#" xmlns:rdf="http://www.w3.org/1999/02/22-rdf-syntax-ns#" xmlns:svg="http://www.w3.org/2000/svg" xmlns="http://www.w3.org/2000/svg" version="1.1" id="svg2" viewBox="0 0 955.94604 537.69485" height="151.74944mm" width="269.78922mm">
   <defs id="defs4" />
   <metadata id="metadata7">
      <rdf:RDF>
         <cc:Work rdf:about="">
            <dc:format>image/svg+xml</dc:format>
            <dc:type rdf:resource="http://purl.org/dc/dcmitype/StillImage" />
            <dc:title></dc:title>
         </cc:Work>
      </rdf:RDF>
   </metadata>
   <g transform="translate(104.07612,-196.9822)" id="layer1">
      <path id="path4136" d="m 88.888891,357.91776 c 0,0 94.444439,-116.66667 -12.96297,-98.14815 c -107.4074,18.51852 -153.7037,107.40741 -92.59259,183.33333 C 44.444441,519.02887 196.2963,765.32517 7.4074081,707.91776 C -308.56229,581.33438 282.00623,519.04126 203.70371,441.25109 c -26.2937,-26.12166 -79.32956,30.75257 -89.11107,66.502 c -16.963426,61.99787 10.27073,172.26572 74.29626,177.94244 c 49.93182,4.42712 69.90811,-77.63342 81.45396,-126.41333 C 284.8917,497.81502 313.16522,371.07757 250,370.88072 c -21.74547,-0.0678 -22.52054,49.17949 -7.40741,64.81481 c 32.27863,33.39393 138.88889,-11.1111 138.88889,-11.1111 c 0,0 -109.25926,229.62962 -62.96296,262.96296 c 40.43732,29.11487 95.66171,-250.88725 161.11111,-235.18519 c 70.49308,16.91209 -25.8271,241.46394 53.70371,235.18519 c 70.37036,-5.55556 53.70369,-229.62963 53.70369,-229.62963 c 0,0 -39.5287,270.65868 25.92593,240.74074 C 677.94204,668.95793 650,487.54739 650,487.54739 c 0,0 5.55556,192.59259 51.85185,209.25926 C 748.14815,713.47331 700,498.6585 700,498.6585 c 72.90425,-56.38644 158.62072,-278.56466 70.37037,-283.33333 c -114.95815,46.82737 64.81481,466.66666 64.81481,466.66666" style="fill:none;fill-rule:evenodd;stroke:#3863ff;stroke-width:36.29999924;stroke-linecap:butt;stroke-linejoin:miter;stroke-miterlimit:5.0999999;stroke-dasharray:none;stroke-opacity:1" />
      <path id="path4138" d="m 437.96128,476.21109 c 0,0 -70.23055,166.3279 -17.59091,203.92889 c 58.7176,41.94253 89.4457,-124.221 84.72475,-138.42509" style="fill:none;fill-rule:evenodd;stroke:#3863ff;stroke-width:36.29999924;stroke-linecap:butt;stroke-linejoin:miter;stroke-miterlimit:4;stroke-dasharray:none;stroke-opacity:1" />
   </g>
</svg>
